<svg width="750" height="750" viewBox="0 0 750 750" fill="none" xmlns="http://www.w3.org/2000/svg">
<path d="M375 0C167.847 0 0 167.847 0 375C0 582.153 167.847 750 375 750C582.153 750 750 582.153 750 375C750 359.863 748.901 344.971 747.07 330.2C734.619 338.745 719.482 343.75 703.125 343.75C669.434 343.75 640.991 322.266 630.005 292.48C610.474 304.932 587.402 312.5 562.5 312.5C493.408 312.5 437.5 256.592 437.5 187.5C437.5 164.551 444.092 143.311 454.956 124.756C454.346 124.878 453.735 125 453.125 125C409.912 125 375 90.0879 375 46.875C375 29.4189 380.859 13.5498 390.503 0.610337C385.376 0.366212 380.249 0 375 0ZM609.375 0C583.496 0 562.5 20.9961 562.5 46.875C562.5 72.7539 583.496 93.75 609.375 93.75C635.254 93.75 656.25 72.7539 656.25 46.875C656.25 20.9961 635.254 0 609.375 0ZM314.087 68.3594C320.312 108.643 343.75 143.311 376.465 164.795C375.488 172.241 375 179.932 375 187.5C375 290.894 459.106 375 562.5 375C578.003 375 593.506 373.047 608.398 369.141C629.761 388.672 656.738 401.611 686.035 405.273C670.776 563.477 537.109 687.5 375 687.5C202.637 687.5 62.5 547.363 62.5 375C62.5 223.511 170.898 96.8018 314.087 68.3594ZM562.5 156.25C545.288 156.25 531.25 170.288 531.25 187.5C531.25 204.712 545.288 218.75 562.5 218.75C579.712 218.75 593.75 204.712 593.75 187.5C593.75 170.288 579.712 156.25 562.5 156.25ZM312.5 187.5C295.288 187.5 281.25 201.538 281.25 218.75C281.25 235.962 295.288 250 312.5 250C329.712 250 343.75 235.962 343.75 218.75C343.75 201.538 329.712 187.5 312.5 187.5ZM718.75 187.5C701.538 187.5 687.5 201.538 687.5 218.75C687.5 235.962 701.538 250 718.75 250C735.962 250 750 235.962 750 218.75C750 201.538 735.962 187.5 718.75 187.5ZM218.75 281.25C184.204 281.25 156.25 309.204 156.25 343.75C156.25 378.296 184.204 406.25 218.75 406.25C253.296 406.25 281.25 378.296 281.25 343.75C281.25 309.204 253.296 281.25 218.75 281.25ZM375 343.75C357.788 343.75 343.75 357.788 343.75 375C343.75 392.212 357.788 406.25 375 406.25C392.212 406.25 406.25 392.212 406.25 375C406.25 357.788 392.212 343.75 375 343.75ZM265.625 468.75C239.746 468.75 218.75 489.746 218.75 515.625C218.75 541.504 239.746 562.5 265.625 562.5C291.504 562.5 312.5 541.504 312.5 515.625C312.5 489.746 291.504 468.75 265.625 468.75ZM484.375 500C458.496 500 437.5 520.996 437.5 546.875C437.5 572.754 458.496 593.75 484.375 593.75C510.254 593.75 531.25 572.754 531.25 546.875C531.25 520.996 510.254 500 484.375 500Z" fill="#15110E"/>
</svg>
