<svg width="350" height="306" viewBox="0 0 350 306" fill="none" xmlns="http://www.w3.org/2000/svg">
<path d="M72.0642 3.28184C65.1158 6.92147 15.6498 56.2218 10.6867 64.4937C-2.71382 86.9932 -3.54101 114.29 8.37053 138.113C10.8521 143.077 31.8627 165.245 71.8987 205.116C121.861 255.078 134.103 266.493 147.008 274.93C165.04 286.676 181.253 293.79 203.422 299.746C218.477 303.716 221.951 304.047 269.763 304.544L320.221 305.205L327.666 301.235C344.375 292.467 350 277.081 350 240.519C349.835 216.034 347.849 208.093 339.577 198.829C332.464 190.888 325.515 187.414 306.159 182.616C289.119 178.315 281.343 173.517 277.538 165.08C276.049 161.44 269.928 137.783 263.972 112.305C251.895 60.1923 249.91 55.891 235.848 48.7772C223.109 42.1597 212.686 42.8214 195.481 51.5896C187.871 55.3947 176.125 62.343 169.507 66.8098C156.272 75.7435 148.331 77.5633 143.699 72.1038C142.375 70.6149 137.743 58.8688 133.442 46.1302C126.493 25.4505 124.839 22.1417 117.89 14.8625C113.589 10.5611 107.137 5.43253 103.497 3.77815C95.2255 -0.0269074 79.0126 -0.192345 72.0642 3.28184ZM98.3688 30.9099C102.008 34.8804 105.317 41.8288 109.949 56.2218C117.89 80.872 122.357 88.813 131.291 93.9416C148.166 103.868 161.732 102.71 181.584 89.6402C188.698 85.008 200.279 78.3905 207.558 74.9163C221.124 68.2988 224.763 68.2988 228.238 74.7508C229.065 76.2398 234.69 98.5738 240.645 124.382C246.601 150.19 252.722 173.517 254.211 176.164C258.016 183.609 267.777 193.866 275.387 198.333C279.193 200.483 288.953 203.958 297.06 205.943C315.423 210.41 320.717 213.057 322.703 218.351C326.342 227.615 327.831 227.284 281.84 227.284C232.043 227.284 222.116 225.961 205.242 217.854C193.827 212.395 188.863 207.928 146.511 166.072C121.034 140.76 97.7071 118.923 94.5637 117.434C86.1264 112.967 74.2149 113.794 51.7153 120.246L31.3664 126.036L28.7194 120.742C27.2305 117.93 25.7415 110.651 25.2452 104.53C23.9217 86.4969 29.2157 77.8942 58.4982 48.9426C79.3434 28.4283 83.1485 25.4505 87.7808 25.4505C91.7513 25.4505 94.5637 26.9394 98.3688 30.9099ZM128.148 183.94C173.643 229.104 181.75 236.052 197.632 243.001C215.003 250.611 227.741 252.1 278.2 252.1H324.853L323.861 262.522C322.868 270.794 321.876 273.441 318.401 276.585L313.935 280.555L268.274 279.728C217.319 279.066 206.731 277.412 182.908 266.327C160.904 256.07 152.302 248.957 100.519 197.671L49.5646 147.047L60.8144 143.407C82.3213 136.624 77.6891 133.812 128.148 183.94Z" fill="#FF9A01"/>
</svg>
